<svg xmlns="http://www.w3.org/2000/svg" width="120" height="50" viewBox="-237 395.9 120 50"><path d="M-120.8 425.5c0 .1-.1.3-.2.4-.1.1-.2.2-.4.2h-1.5c-.1 0-.3-.1-.4-.2-.1-.1-.2-.2-.2-.4l-3.3-16.6-3.2 16.6c0 .1-.1.3-.2.4-.1.1-.2.2-.4.2h-1.5c-.1 0-.3-.1-.4-.2-.1-.1-.2-.2-.2-.4l-3.8-18.8c0-.1 0-.2.1-.3.1-.1.2-.1.3-.1h1.2c.3 0 .5.1.6.5l2.9 16.6 3.2-16.6c.1-.3.3-.5.6-.5h1.5c.3 0 .5.1.5.5l3.3 16.6 2.9-16.6c.1-.3.3-.5.6-.5h1.2c.1 0 .2 0 .3.1.1.1.1.2.1.3l-3.6 18.8zm-15.2 10.4c-.1 0-.2-.1-.2-.2-.1-.1-.1-.2-.1-.3v-4.9h.5v4.5c0 .2 0 .3.1.4 0 .1.1.2.2.2h.2l.1-.1.2.4s-.1.1-.2.1h-.3c-.2 0-.4 0-.5-.1zm.2 4.4c.3 0 .5.1.6.2.2.1.3.3.5.5.1.2.2.4.2.6.1.2.1.5.1.7 0 .2-.1.5-.1.7-.1.2-.2.5-.3.7-.1.2-.3.4-.5.5-.2.1-.4.2-.7.2h-.7c-.1 0-.2 0-.3-.1-.1 0-.2-.1-.2-.1V439h.5v2.1l.1-.1.2-.2c.1-.1.2-.1.3-.2.1-.3.2-.3.3-.3zm-.6.7l-.2.2-.1.2v2.3h.7c.2 0 .3 0 .5-.2.1-.1.2-.2.3-.4.1-.2.2-.4.2-.5 0-.2.1-.4.1-.5 0-.2 0-.3-.1-.5 0-.2-.1-.3-.2-.5l-.3-.3c-.1-.1-.3-.2-.4-.2-.1 0-.2 0-.3.1 0 .2-.1.2-.2.3zm-1.7-5.6l-.1.1-.2.2c-.1.1-.2.1-.3.2-.1.1-.3.1-.4.1-.2 0-.4 0-.5-.1-.1-.1-.3-.2-.4-.3-.1-.1-.2-.2-.2-.4s-.1-.3-.1-.5v-2.6h.5v2.8c0 .1.1.2.1.3.1.1.2.1.2.2.1.1.2.1.3.1.1 0 .3 0 .4-.1.1-.1.2-.1.3-.2l.2-.2.1-.2v-2.7h.5v3.8h-.5v-.5zm-2.2-10.9c-.6.5-1.3.8-2.2 1.1-.8.3-1.7.4-2.6.4h-4.5c-.1 0-.3-.1-.4-.2-.1-.1-.2-.2-.2-.4v-18.8c0-.1.1-.2.2-.3.1-.1.2-.1.4-.1h4.9c.8 0 1.5.1 2.2.3.7.2 1.3.5 1.9.9.5.4 1 .9 1.3 1.6.3.6.5 1.3.5 2.2 0 .5-.1 1-.4 1.5-.2.5-.5.9-.9 1.3s-.8.7-1.2 1c-.4.3-.8.5-1.2.6.5.1 1.1.3 1.6.5.5.3 1 .6 1.3 1 .4.4.7.9.9 1.4.2.5.3 1.1.3 1.7 0 .9-.2 1.7-.5 2.4-.3.9-.8 1.5-1.4 1.9zm-1.9-10.7c.4-.3.6-.7.9-1.1.2-.4.3-.9.3-1.4 0-1-.3-1.8-1-2.4-.7-.6-1.6-.9-2.7-.9h-3.2v6.8h3.1c.5 0 1-.1 1.4-.3.4-.1.9-.3 1.2-.7zm.5 3.8c-.8-.7-1.8-1-3-1h-3.2v7.7h3.2c.6 0 1.1-.1 1.6-.3.5-.2 1-.5 1.3-.8.4-.4.7-.8.9-1.3.2-.5.3-1.1.3-1.6 0-1.2-.3-2.1-1.1-2.7zm-7.9 14.4h.3c.1 0 .2.1.3.1.1 0 .2 0 .2.1l.1.1-.2.4-.1-.1-.2-.1-.2-.1h-.2c-.2 0-.4.1-.5.2-.1.1-.2.3-.2.5 0 .1 0 .2.1.3l.3.3c.1.1.3.2.5.2.2.1.3.2.4.3l.3.3c.1.1.1.2.1.4s0 .3-.1.5c-.1.1-.2.3-.3.4-.1.1-.2.2-.4.2-.2.1-.3.1-.5.1h-.4c-.1 0-.3 0-.4-.1-.1 0-.2-.1-.2-.1l-.2-.1.2-.4.2.1c.1 0 .1.1.2.1s.2.1.3.1h.3c.2 0 .4-.1.5-.2.1-.1.2-.3.2-.5 0-.1-.1-.2-.2-.3l-.3-.3c-.1-.1-.3-.2-.4-.2-.2-.1-.3-.2-.4-.3l-.3-.3c-.1-.1-.1-.2-.1-.4s0-.3.1-.5c.1-.1.2-.3.3-.4.1-.1.2-.2.4-.2s.4-.1.5-.1zm-.7 8.8h-.8v2.6c0 .1 0 .2.1.3 0 .1.1.2.2.2s.1 0 .2-.1c.1 0 .2 0 .2-.1l.2.4h-.7c-.1 0-.3 0-.4-.1-.1 0-.2-.1-.2-.2-.1-.1-.1-.2-.1-.3 0-.1-.1-.2-.1-.3v-2.6h-.6v-.4h.6v-1h.5v1h.8v.6zm-2.1-7.4c0-.1 0-.2-.1-.3s-.1-.2-.1-.3l-.2-.2c-.1-.1-.2-.1-.3-.1-.1 0-.2 0-.3.1-.1.1-.2.1-.3.2l-.2.2-.1.2v2.7h-.5v-5.3h.5v2.1l.1-.2.2-.2c.1-.1.2-.1.3-.2.1-.1.2-.1.4-.1s.4 0 .5.1c.2.1.3.2.4.3.1.1.2.3.2.4.1.2.1.3.1.5v2.6h-.5v-2.5zm-2.7-7.4h-2c-.2 0-.4-.1-.5-.2-.1-.1-.2-.3-.2-.5v-8.1h-6.8v8.1c0 .2-.1.4-.2.5-.1.1-.3.2-.5.2h-2c-.2 0-.4-.1-.5-.2-.1-.1-.2-.3-.2-.5V407c0-.2.1-.4.2-.5.1-.1.3-.2.5-.2h2c.2 0 .4 0 .5.2.1.1.2.3.2.5v7.3h6.8V407c0-.2.1-.4.2-.5.1-.1.3-.2.5-.2h2c.2 0 .4 0 .5.2.1.1.2.3.2.5v18.3c0 .2-.1.4-.2.5 0 .2-.2.2-.5.2zm-13.7 15.6c0-.1 0-.2-.1-.3 0-.1-.1-.2-.1-.3l-.2-.2c-.1-.1-.2-.1-.3-.1-.1 0-.2 0-.3.1-.1.1-.2.1-.3.2l-.2.2-.1.2v2.7h-.5v-3.8h.5v.5l.1-.1.2-.2c.1-.1.2-.1.3-.2.1-.1.2-.1.4-.1s.4 0 .5.1c.1.1.3.2.4.3.1.1.2.3.2.4 0 .2.1.3.1.5v2.6h-.5v-2.5zm-2.9-7c0 .2.1.3.2.5.1.1.2.3.3.4.1.1.3.2.5.2.1 0 .2 0 .3-.1.1 0 .2 0 .3-.1.1 0 .2-.1.2-.1l.2-.1.2.4-.2.1c-.1 0-.1.1-.2.1s-.2.1-.4.1h-.4c-.3 0-.5-.1-.7-.2-.2-.1-.3-.3-.5-.5-.1-.2-.2-.4-.2-.7 0-.2-.1-.5-.1-.7 0-.2 0-.4.1-.6l.3-.6c.1-.2.3-.3.4-.5.2-.1.4-.2.6-.2.3 0 .5.1.6.2.2.1.3.3.4.5.1.2.2.4.2.6 0 .2.1.4.1.6v.2h-2.2c-.1.1-.1.3 0 .5zm1.7-.9c0-.1 0-.2-.1-.4 0-.1-.1-.3-.2-.4l-.3-.3c-.1-.1-.2-.1-.4-.1-.1 0-.3 0-.4.1l-.3.3c-.1.1-.1.2-.2.4 0 .1-.1.3-.1.4h2zm-3.8-10.6c-.8.9-1.7 1.7-2.8 2.2-1.1.5-2.3.8-3.7.8h-5c-.2 0-.4-.1-.5-.2-.1-.1-.2-.3-.2-.5V407c0-.2.1-.4.2-.5.1-.1.3-.2.5-.2h4.9c1.3 0 2.5.2 3.6.7 1.1.5 2.1 1.1 2.8 1.9.8.8 1.4 1.8 1.8 3 .4 1.2.6 2.5.6 3.9 0 1.5-.2 2.9-.6 4.1-.3 1.2-.9 2.3-1.6 3.2zm-1.6-10c-.2-.8-.6-1.5-1.1-2.1-.5-.6-1-1.1-1.7-1.4-.7-.3-1.4-.5-2.2-.5h-2.2v14.3h2c.8 0 1.6-.2 2.2-.6.7-.4 1.2-.9 1.7-1.6.5-.7.9-1.5 1.1-2.4.3-.9.4-1.9.4-3 .2-1 .1-1.9-.2-2.7zm-21.4 12.9h-18.1c-.4 0-.8-.4-.8-.8v-.9c0 .2.1.3.2.3-.1 0-.2-.1-.2-.3V407c0-.2.1-.4.2-.5-.1.1-.1.1-.1.2v-.6c0-.4.4-1.1.8-1.5l8.4-8.4c.2-.2.4-.3.5-.3.1 0 .2.1.2.3v10.1h8.9c.4 0 .8.3.8.7v18.2c0 .4-.4.8-.8.8zm.3-19c0-.2-.1-.3-.3-.3h-18.1c-.2 0-.3.2-.3.3v18.2c0 .2.2.3.3.3h18.1c.2 0 .3-.2.3-.3V407zm-20.8 19c0 .4-.3 1.1-.8 1.5l-8.3 8.4c-.2.2-.4.3-.5.3-.1 0-.2-.1-.2-.3V426h-9.1c-.4 0-.8-.4-.8-.8V407c0-.4.4-.7.8-.7h18.2c.4 0 .8.3.8.7v18.3c0 .1 0 .2-.1.3v.4zm-9.4 0v9.6l8.3-8.3c.4-.4.6-.9.6-1.2v-17.9l-8.3 8.4c-.3.4-.6.9-.6 1.1v8.3zm9.2-18.5c-.1 0-.3.1-.5.3.1-.2.3-.3.5-.3.1 0 .2.1.2.3 0-.2-.1-.3-.2-.3zM-184 431c.3.1.5.3.7.5.2.2.3.4.5.7.1.3.2.6.2 1s0 .7-.2 1c-.1.3-.3.6-.5.8-.2.2-.4.4-.7.5-.3.1-.5.2-.9.2h-1.2v-5h1.1c.4.2.7.2 1 .3zm-1.4 4.5h.6c.2 0 .4-.1.6-.2.2-.1.4-.3.5-.5.1-.2.3-.4.4-.7s.1-.5.1-.9c0-.3-.1-.6-.2-.8-.1-.2-.2-.4-.4-.6-.1-.2-.3-.3-.5-.4-.2-.1-.4-.2-.6-.2h-.6v4.3zm1.3 3.7c.2.1.3.1.5.2.1.1.3.2.3.4.1.2.1.4.1.6 0 .1 0 .2-.1.4-.1.1-.2.2-.2.3-.1.1-.2.2-.3.2-.1.1-.2.1-.3.2.1 0 .3.1.4.2.1.1.2.1.3.2.1.1.2.2.2.4s.1.3.1.5 0 .4-.1.6c-.1.2-.2.3-.4.4l-.6.3c-.2.1-.4.1-.6.1h-1.3v-5h1.4c.3-.1.5 0 .6 0zm-1.3 4.5h.8c.1 0 .3 0 .4-.1.1-.1.2-.1.3-.2.1-.1.2-.2.2-.3.1-.1.1-.2.1-.4 0-.3-.1-.5-.3-.7-.2-.2-.4-.2-.8-.2h-.8v1.9zm0-2.4h.8c.1 0 .2 0 .4-.1.1 0 .2-.1.3-.2.1-.1.2-.2.2-.3.1-.1.1-.2.1-.4 0-.3-.1-.5-.3-.6-.2-.2-.4-.2-.7-.2h-.8v1.8zm3.6 1.1c.1-.1.3-.2.5-.2s.3-.1.5-.2l.7-.2v-.2c0-.2-.1-.4-.2-.6-.1-.2-.3-.3-.6-.3-.1 0-.2 0-.3.1-.1 0-.2.1-.3.1-.1 0-.2.1-.2.1l-.2.1-.2-.4.2-.1c.1 0 .2-.1.3-.1.1 0 .2-.1.3-.1.1 0 .3-.1.4-.1.4 0 .7.1.9.3.2.2.3.5.3.9v2.6h-.5v-.5l-.1.2-.2.2c-.1.1-.2.1-.3.2-.1.1-.3.1-.4.1-.3 0-.6-.1-.8-.3-.2-.2-.3-.5-.3-.8 0-.2.1-.3.2-.4 0-.2.1-.3.3-.4zm.2 1.3c.1.1.3.2.5.2.1 0 .2 0 .3-.1.1 0 .2-.1.3-.2.1-.1.2-.1.2-.2l.1-.2v-.9l-.6.1c-.1 0-.2.1-.3.1-.1.1-.2.1-.3.2l-.2.2c-.1.1-.1.2-.1.3-.1.2 0 .3.1.5zm1.7-8c-.1.1-.2.1-.3.2-.1.1-.2.1-.4.1s-.4 0-.5-.1c-.1-.1-.3-.2-.4-.3-.1-.1-.2-.2-.2-.4s-.1-.3-.1-.5v-2.6h.5v2.5c0 .1 0 .2.1.3 0 .1.1.2.1.3l.2.2c.1.1.2.1.3.1.1 0 .2 0 .3-.1.1-.1.2-.1.3-.2l.2-.2.1-.2v-2.7h.5v3.8h-.5v-.5l-.1.1c.1.1 0 .1-.1.2zm1.7 5.2c.1-.2.3-.3.5-.4.2-.1.4-.2.6-.2.1 0 .2 0 .3.1.1 0 .2.1.3.2l.2.2.1.2v-2.1h.5v5.3h-.5v-.5l-.1.2-.2.2c-.1.1-.2.1-.3.2-.1.1-.2.1-.3.1-.3 0-.5-.1-.7-.2-.2-.1-.3-.3-.4-.5-.1-.2-.2-.4-.2-.7-.1-.2-.1-.5-.1-.7 0-.2 0-.4.1-.7-.1-.3 0-.5.2-.7zm.2 1.8c0 .2.1.4.2.5.1.2.2.3.3.4.1.1.3.2.5.2.1 0 .2 0 .3-.1.1-.1.2-.1.3-.2l.2-.2.1-.2v-1.6l-.1-.2c0-.1-.1-.2-.2-.2-.1-.1-.1-.2-.2-.2-.1-.1-.2-.1-.3-.1-.1 0-.3 0-.4.1l-.3.3c-.1.1-.1.3-.2.5 0 .2-.1.4-.1.6-.2 0-.2.2-.1.4zm2.2-10.3c.2.2.3.5.3.9v2.6h-.5v-.5l-.1.2-.2.2s-.2.2-.3.2c-.1.1-.2.1-.4.1-.3 0-.6-.1-.8-.3-.2-.2-.3-.5-.3-.8 0-.2.1-.3.2-.4.1-.1.2-.3.3-.4.1-.1.3-.2.5-.2.2-.1.3-.1.5-.2l.7-.2v-.2c0-.2-.1-.4-.2-.6-.1-.2-.3-.2-.6-.2h-.3c-.1 0-.2.1-.3.1-.1 0-.2.1-.2.1l-.2.1-.2-.4.2-.1c.1 0 .1-.1.2-.1s.2-.1.4-.1c.1 0 .3-.1.4-.1.4-.1.7 0 .9.3zm-.8 1.7c-.1 0-.2.1-.3.1-.1 0-.2.1-.3.2l-.2.2c-.1.1-.1.2-.1.3 0 .2.1.4.2.5.1.1.3.2.5.2.1 0 .2 0 .3-.1.1 0 .2-.1.3-.2l.2-.2.1-.2v-.9l-.7.1zm-.1-2.1zm3.3 4c-.2 0-.3 0-.4-.1-.1 0-.2-.1-.2-.2-.1-.1-.1-.2-.1-.3v-4.9h.5v4.5c0 .2 0 .3.1.4 0 .1.1.2.2.2h.1l.1-.1.2.4s-.1.1-.2.1h-.3zm-1.1 5c.1-.2.3-.4.5-.5.2-.1.4-.2.6-.2.3 0 .5.1.6.2.2.1.3.3.4.5.1.2.2.4.2.6 0 .2.1.4.1.6v.2h-2.2c0 .2 0 .3.1.5 0 .2.1.3.2.5.1.1.2.3.3.4.1.1.3.1.4.1h.3c.1 0 .2 0 .3-.1.1 0 .1-.1.2-.1l.2-.1.2.4-.2.1c-.1 0-.2.1-.3.1-.1 0-.2.1-.3.1h-.4c-.3 0-.5-.1-.7-.2-.2-.1-.3-.3-.5-.5s-.2-.4-.2-.7c0-.2-.1-.5-.1-.7 0-.2 0-.4.1-.6 0-.3.1-.5.2-.6zm1.9 1v-.4c0-.2-.1-.3-.2-.4l-.3-.3c-.1-.1-.2-.2-.4-.2-.1 0-.3.1-.4.2l-.3.3c-.1.1-.1.2-.2.4 0 .1-.1.3-.1.4h1.9zm7 .1h-1.6v-.5h1.6v.5zm2.5-11.2v5h-.5v-2.4h-2v2.4h-.5v-5h.5v2.2h2v-2.2h.5zm-.3 12.6l1.1-4.3h.6l1.1 4.3.9-4.3h.5l-1.2 5h-.6l-1.1-4.3-1.1 4.3h-.6l-1.2-5h.6l1 4.3zm3.7-7.7c-.2.1-.4.2-.7.2-.3 0-.5-.1-.7-.2-.2-.1-.3-.3-.5-.5-.1-.2-.2-.4-.2-.7 0-.2-.1-.5-.1-.7 0-.2 0-.4.1-.6l.3-.6c.1-.2.3-.4.5-.5.2-.1.4-.2.7-.2.3 0 .5.1.7.2.2.1.3.3.5.5l.3.6c.1.2.1.4.1.6 0 .2 0 .4-.1.7-.1.2-.1.5-.2.7-.4.2-.5.3-.7.5zm.2-2.3c0-.2-.1-.3-.2-.5s-.2-.3-.3-.4c-.1-.1-.3-.2-.5-.2s-.3.1-.4.2c-.1.1-.2.3-.3.4-.1.1-.1.3-.2.5 0 .2-.1.3-.1.5s0 .3.1.5c0 .2.1.3.1.5.1.2.2.3.3.4.1.1.3.2.5.2s.3-.1.5-.2c.1-.1.2-.3.3-.4.1-.2.1-.3.2-.5v-1zm-.9-1.5zm2.5 8.4v2.8c0 .1.1.2.1.3l.2.2c.1.1.2.1.3.1.1 0 .2 0 .3-.1.1-.1.2-.1.3-.2l.2-.2.1-.2v-2.7h.5v3.8h-.5v-.5l-.1.2-.2.2c-.1.1-.2.1-.3.2-.1.1-.2.1-.4.1s-.4 0-.5-.1c-.1-.1-.3-.2-.4-.3-.1-.1-.2-.2-.2-.4s-.1-.3-.1-.5v-2.6h.7zm1.5-1.4c.1 0 .2.1.3.1.1.1.1.1.1.2s0 .2-.1.2c-.1.1-.2.1-.3.1-.1 0-.2 0-.2-.1-.1-.1-.1-.1-.1-.2s0-.2.1-.2c0 0 .1-.1.2-.1zm-1.3 0c.1 0 .2.1.2.1.1.1.1.1.1.2s-.1.2-.1.2c-.1.1-.1.1-.2.1s-.2 0-.2-.1c-.1-.1-.1-.1-.1-.2s0-.2.1-.2c0 0 .1-.1.2-.1zm1.5-3h-.4c-.3 0-.5-.1-.7-.2-.2-.1-.3-.3-.5-.5-.1-.2-.2-.4-.2-.7-.1-.2-.1-.5-.1-.8 0-.2.1-.4.1-.6l.3-.6c.1-.2.3-.3.5-.5.2-.1.4-.2.6-.2h.3c.1 0 .2.1.3.1l.2.1.1.1-.2.4-.1-.1-.2-.1-.2-.1h-.2c-.2 0-.3.1-.4.2l-.3.3c-.1.1-.1.3-.2.5 0 .2-.1.3-.1.5s0 .4.1.6c0 .2.1.4.2.5.1.2.2.3.3.4.1.1.3.2.5.2h.2c.1 0 .2 0 .2-.1l.2-.1.1-.1.2.4-.2.1c-.1 0-.1.1-.2.1 0 .1-.1.1-.2.2zm2.2 4.9l.1-.1.2-.2c.1-.1.2-.1.3-.2.1-.1.2-.1.4-.1h.2l.2.1-.2.5-.2-.1h-.2c-.1 0-.2 0-.3.1-.1.1-.2.1-.2.2l-.2.2-.1.2v2.7h-.5v-3.8h.5v.5zm5-1.5h.5v1h.7v.4h-.7v2.6c0 .1 0 .2.1.3 0 .1.1.2.2.2s.2 0 .2-.1c.1 0 .1 0 .2-.1l.2.4h-.7c-.1 0-.3 0-.4-.1-.1 0-.2-.1-.2-.2-.1-.1-.1-.2-.1-.3v-2.9h-.6v-.4h.6v-.8zm1.8-6.7c.1-.2.3-.3.5-.5.2-.1.4-.2.6-.2h.3c.1 0 .2.1.3.1l.2.1.1.1-.2.4-.1-.1-.2-.1-.2-.1h-.2c-.2 0-.3.1-.4.2l-.3.3c-.1.1-.1.3-.2.5 0 .2-.1.3-.1.5s0 .4.1.6c0 .2.1.4.2.5.1.2.2.3.3.4.1.1.3.2.4.2h.3c.1 0 .2 0 .2-.1l.2-.1.2-.1.2.4-.1.1c-.1 0-.1.1-.2.1s-.2.1-.3.1h-.4c-.3 0-.5-.1-.7-.2-.2-.1-.3-.3-.5-.5-.1-.2-.2-.4-.2-.7-.1-.2-.1-.5-.1-.8 0-.2.1-.4.1-.6 0-.2 0-.4.2-.5zm.6 8.3c.1-.2.3-.4.4-.5.2-.1.4-.2.6-.2.3 0 .5.1.6.2.2.1.3.3.4.5.1.2.2.4.2.6 0 .2.1.4.1.6v.2h-2.2c0 .2 0 .3.1.5 0 .2.1.3.2.5.1.1.2.3.3.4.1.1.3.1.5.1h.3c.1 0 .2 0 .3-.1.1 0 .2-.1.2-.1l.2-.1.2.4-.2.1c-.1 0-.1.1-.2.1s-.2.1-.4.1h-.4c-.3 0-.5-.1-.7-.2-.2-.1-.3-.3-.5-.5s-.2-.4-.2-.7c0-.2-.1-.5-.1-.7 0-.2 0-.4.1-.6 0-.3.1-.5.2-.6zm1.9 1c0-.1 0-.2-.1-.4 0-.2-.1-.3-.2-.4l-.3-.3c-.1-.1-.2-.2-.4-.2-.1 0-.3.1-.4.2l-.3.3c-.1.1-.1.2-.2.4 0 .1-.1.3-.1.4h2zm-.9-1.7zm1.9-7.6l.1-.2.2-.2c.1-.1.2-.1.3-.2.1-.1.2-.1.4-.1s.4 0 .5.1c.1.1.3.2.4.3.1.1.2.3.2.4.1.2.1.3.1.5v2.6h-.5v-2.5c0-.1 0-.2-.1-.3 0-.1-.1-.2-.1-.3l-.2-.2c-.1-.1-.2-.1-.3-.1-.1 0-.3 0-.4.1-.1.1-.2.1-.3.2l-.2.2-.1.2v2.7h-.5v-5.3h.5v2.1zm1.1 8.2l.1-.1.2-.2c.1-.1.2-.1.3-.2.1-.1.2-.1.4-.1s.3 0 .5.1c.1 0 .2.1.3.2l.2.2.1.2.1-.1.2-.2c.1-.1.2-.1.3-.2.1-.1.2-.1.4-.1s.4 0 .5.1c.1.1.3.2.4.3.1.1.1.3.2.4 0 .2.1.3.1.5v2.6h-.5v-2.8c0-.1-.1-.2-.1-.3-.1-.1-.1-.2-.2-.2-.1-.1-.2-.1-.3-.1-.1 0-.2 0-.3.1-.1 0-.2.1-.3.2l-.2.2-.1.2v2.8h-.5v-2.8c0-.1-.1-.2-.1-.3-.1-.1-.1-.2-.2-.2-.1-.1-.2-.1-.3-.1-.1 0-.2 0-.3.1-.1.1-.2.1-.3.2l-.2.2-.1.2v2.7h-.5v-3.8h.5v.3zm8-7c0-.2 0-.4.1-.6l.3-.6c.1-.2.3-.3.4-.5.2-.1.4-.2.6-.2.3 0 .5.1.6.2.2.1.3.3.4.5.1.2.2.4.2.6 0 .2.1.4.1.6v.2h-2.2c0 .1 0 .3.1.5 0 .2.1.3.2.5.1.1.2.3.3.4.1.1.3.2.5.2.1 0 .2 0 .3-.1.1 0 .2 0 .3-.1.1 0 .1-.1.2-.1l.2-.1.2.4-.2.1c-.1 0-.1.1-.2.1s-.2.1-.4.1h-.4c-.3 0-.5-.1-.7-.2-.2-.1-.3-.3-.5-.5-.1-.2-.2-.4-.2-.7-.1-.2-.2-.5-.2-.7zm2.3-.2c0-.1 0-.2-.1-.4 0-.1-.1-.3-.2-.4-.1-.1-.1-.2-.2-.3-.1-.1-.2-.1-.4-.1-.1 0-.3 0-.4.1l-.3.3c-.1.1-.1.2-.2.4 0 .1-.1.3-.1.4h1.9zm-.9 7.3c.1-.2.3-.4.4-.5.2-.1.4-.2.6-.2.3 0 .5.1.7.2.2.1.3.3.4.5.1.2.2.4.2.6 0 .2.1.4.1.6v.2h-2.2c0 .2 0 .3.1.5 0 .2.1.3.2.5.1.1.2.3.3.4.1.1.3.1.5.1h.3c.1 0 .2 0 .3-.1.1 0 .1-.1.2-.1l.2-.1.2.4-.2.1c-.1 0-.1.1-.2.1s-.2.1-.4.1h-.4c-.3 0-.5-.1-.7-.2-.2-.1-.3-.3-.5-.5-.1-.2-.2-.4-.2-.7 0-.2-.1-.5-.1-.7 0-.2 0-.4.1-.6-.1-.3 0-.5.1-.6zm1.9 1c0-.1 0-.2-.1-.4 0-.2-.1-.3-.2-.4-.1-.1-.1-.2-.2-.3-.1-.1-.2-.2-.4-.2-.1 0-.3.1-.4.2l-.3.3c-.1.1-.1.2-.2.4 0 .1-.1.3-.1.4h1.9zm2-1.1l.1-.1.2-.2.2-.2c.1-.1.2-.1.4-.1h.2l.2.1-.2.5-.1-.1h-.2c-.1 0-.2 0-.3.1-.1.1-.2.1-.2.2l-.2.2-.1.2v2.7h-.5v-3.8h.5v.5zm2.1 3.3c.1-.1.2-.1.3-.2.1 0 .2-.1.3-.1h-.2l-.2-.1-.2-.2c0-.1-.1-.2-.1-.2l.1-.2.1-.2.2-.1h.2c-.1 0-.2-.1-.2-.2-.1-.1-.2-.1-.3-.2-.1-.1-.2-.2-.2-.4-.1-.2-.1-.3-.1-.5s0-.3.1-.5.2-.3.3-.4c.1-.1.3-.2.4-.3.2-.1.3-.1.5-.1h.3c.1 0 .2 0 .2.1h1.1v.4h-.6l.1.1.1.2c0 .1.1.1.1.2v.3c0 .2 0 .3-.1.5s-.2.3-.3.5c-.1.1-.3.2-.4.3-.2.1-.3.1-.5.1h-.2l-.2.1-.2.1-.1.2c0 .1.1.2.2.2.1.1.2.1.4.1s.4 0 .6.1c.2 0 .3.1.5.2.1.1.3.2.4.3.1.1.1.3.1.5 0 .1 0 .3-.1.4-.1.1-.2.3-.3.4-.1.1-.3.2-.5.3-.2.1-.4.1-.6.1-.2 0-.4 0-.6-.1-.2-.1-.3-.1-.5-.2-.1-.1-.3-.2-.3-.3-.1-.1-.1-.3-.1-.4 0-.1 0-.3.1-.4.2-.3.3-.4.4-.4zm.7-1.7c.1.1.2.1.4.1.1 0 .3 0 .4-.1.1-.1.2-.1.2-.2.1-.1.1-.2.1-.3 0-.1.1-.2.1-.3 0-.3-.1-.5-.2-.7-.1-.2-.3-.2-.6-.2-.1 0-.2 0-.3.1-.1 0-.2.1-.2.2-.1.1-.1.2-.2.3 0 .1-.1.2-.1.3v.4c0 .1.1.2.2.3 0 0 .1.1.2.1zm-.5 2.5c0 .1.1.2.2.2.1.1.2.1.3.2.1 0 .3.1.4.1.2 0 .3 0 .4-.1.1 0 .2-.1.3-.2l.2-.2c.1-.1.1-.2.1-.3 0-.2-.1-.4-.3-.5-.2-.1-.5-.2-.8-.2-.1 0-.2 0-.4.1-.1 0-.2.1-.3.1-.1.1-.2.1-.2.2-.1.1-.1.2-.1.3.1.2.1.3.2.3z"></path></svg>