<svg version="1.0" xmlns="http://www.w3.org/2000/svg" xmlns:xlink="http://www.w3.org/1999/xlink" viewBox="0 0 100 100" enable-background="new 0 0 100 100" xml:space="preserve">
	
<svg xmlns="http://www.w3.org/2000/svg" xmlns:xlink="http://www.w3.org/1999/xlink" version="1.1" width="100" height="100" viewBox="0 0 2000 2000" shape-rendering="crispEdges" x="0" y="0"><defs><rect id="r0" width="51" height="51" fill="#000000"></rect></defs><rect x="0" y="0" width="2000" height="2000" fill="#ffffff"></rect><use x="668" y="158" xlink:href="#r0"></use><use x="770" y="158" xlink:href="#r0"></use><use x="821" y="158" xlink:href="#r0"></use><use x="872" y="158" xlink:href="#r0"></use><use x="923" y="158" xlink:href="#r0"></use><use x="1229" y="158" xlink:href="#r0"></use><use x="1280" y="158" xlink:href="#r0"></use><use x="1382" y="158" xlink:href="#r0"></use><use x="566" y="209" xlink:href="#r0"></use><use x="668" y="209" xlink:href="#r0"></use><use x="821" y="209" xlink:href="#r0"></use><use x="872" y="209" xlink:href="#r0"></use><use x="923" y="209" xlink:href="#r0"></use><use x="974" y="209" xlink:href="#r0"></use><use x="1025" y="209" xlink:href="#r0"></use><use x="1280" y="209" xlink:href="#r0"></use><use x="1331" y="209" xlink:href="#r0"></use><use x="1382" y="209" xlink:href="#r0"></use><use x="770" y="260" xlink:href="#r0"></use><use x="821" y="260" xlink:href="#r0"></use><use x="923" y="260" xlink:href="#r0"></use><use x="1076" y="260" xlink:href="#r0"></use><use x="1178" y="260" xlink:href="#r0"></use><use x="1331" y="260" xlink:href="#r0"></use><use x="566" y="311" xlink:href="#r0"></use><use x="617" y="311" xlink:href="#r0"></use><use x="668" y="311" xlink:href="#r0"></use><use x="770" y="311" xlink:href="#r0"></use><use x="872" y="311" xlink:href="#r0"></use><use x="923" y="311" xlink:href="#r0"></use><use x="1025" y="311" xlink:href="#r0"></use><use x="1280" y="311" xlink:href="#r0"></use><use x="617" y="362" xlink:href="#r0"></use><use x="923" y="362" xlink:href="#r0"></use><use x="974" y="362" xlink:href="#r0"></use><use x="1076" y="362" xlink:href="#r0"></use><use x="1229" y="362" xlink:href="#r0"></use><use x="566" y="413" xlink:href="#r0"></use><use x="617" y="413" xlink:href="#r0"></use><use x="719" y="413" xlink:href="#r0"></use><use x="770" y="413" xlink:href="#r0"></use><use x="1025" y="413" xlink:href="#r0"></use><use x="1127" y="413" xlink:href="#r0"></use><use x="1280" y="413" xlink:href="#r0"></use><use x="1382" y="413" xlink:href="#r0"></use><use x="566" y="464" xlink:href="#r0"></use><use x="668" y="464" xlink:href="#r0"></use><use x="770" y="464" xlink:href="#r0"></use><use x="872" y="464" xlink:href="#r0"></use><use x="974" y="464" xlink:href="#r0"></use><use x="1076" y="464" xlink:href="#r0"></use><use x="1178" y="464" xlink:href="#r0"></use><use x="1280" y="464" xlink:href="#r0"></use><use x="1382" y="464" xlink:href="#r0"></use><use x="617" y="515" xlink:href="#r0"></use><use x="668" y="515" xlink:href="#r0"></use><use x="719" y="515" xlink:href="#r0"></use><use x="872" y="515" xlink:href="#r0"></use><use x="974" y="515" xlink:href="#r0"></use><use x="1127" y="515" xlink:href="#r0"></use><use x="1178" y="515" xlink:href="#r0"></use><use x="1229" y="515" xlink:href="#r0"></use><use x="1331" y="515" xlink:href="#r0"></use><use x="158" y="566" xlink:href="#r0"></use><use x="209" y="566" xlink:href="#r0"></use><use x="260" y="566" xlink:href="#r0"></use><use x="311" y="566" xlink:href="#r0"></use><use x="362" y="566" xlink:href="#r0"></use><use x="464" y="566" xlink:href="#r0"></use><use x="515" y="566" xlink:href="#r0"></use><use x="566" y="566" xlink:href="#r0"></use><use x="617" y="566" xlink:href="#r0"></use><use x="719" y="566" xlink:href="#r0"></use><use x="974" y="566" xlink:href="#r0"></use><use x="1178" y="566" xlink:href="#r0"></use><use x="1229" y="566" xlink:href="#r0"></use><use x="1280" y="566" xlink:href="#r0"></use><use x="1382" y="566" xlink:href="#r0"></use><use x="1433" y="566" xlink:href="#r0"></use><use x="1535" y="566" xlink:href="#r0"></use><use x="1637" y="566" xlink:href="#r0"></use><use x="1739" y="566" xlink:href="#r0"></use><use x="158" y="617" xlink:href="#r0"></use><use x="209" y="617" xlink:href="#r0"></use><use x="260" y="617" xlink:href="#r0"></use><use x="362" y="617" xlink:href="#r0"></use><use x="515" y="617" xlink:href="#r0"></use><use x="668" y="617" xlink:href="#r0"></use><use x="770" y="617" xlink:href="#r0"></use><use x="821" y="617" xlink:href="#r0"></use><use x="872" y="617" xlink:href="#r0"></use><use x="923" y="617" xlink:href="#r0"></use><use x="1076" y="617" xlink:href="#r0"></use><use x="1127" y="617" xlink:href="#r0"></use><use x="1229" y="617" xlink:href="#r0"></use><use x="1280" y="617" xlink:href="#r0"></use><use x="1433" y="617" xlink:href="#r0"></use><use x="1535" y="617" xlink:href="#r0"></use><use x="1637" y="617" xlink:href="#r0"></use><use x="1688" y="617" xlink:href="#r0"></use><use x="158" y="668" xlink:href="#r0"></use><use x="209" y="668" xlink:href="#r0"></use><use x="260" y="668" xlink:href="#r0"></use><use x="413" y="668" xlink:href="#r0"></use><use x="464" y="668" xlink:href="#r0"></use><use x="668" y="668" xlink:href="#r0"></use><use x="821" y="668" xlink:href="#r0"></use><use x="872" y="668" xlink:href="#r0"></use><use x="923" y="668" xlink:href="#r0"></use><use x="974" y="668" xlink:href="#r0"></use><use x="1025" y="668" xlink:href="#r0"></use><use x="1280" y="668" xlink:href="#r0"></use><use x="1433" y="668" xlink:href="#r0"></use><use x="1535" y="668" xlink:href="#r0"></use><use x="1586" y="668" xlink:href="#r0"></use><use x="1739" y="668" xlink:href="#r0"></use><use x="158" y="719" xlink:href="#r0"></use><use x="260" y="719" xlink:href="#r0"></use><use x="362" y="719" xlink:href="#r0"></use><use x="413" y="719" xlink:href="#r0"></use><use x="515" y="719" xlink:href="#r0"></use><use x="566" y="719" xlink:href="#r0"></use><use x="770" y="719" xlink:href="#r0"></use><use x="821" y="719" xlink:href="#r0"></use><use x="923" y="719" xlink:href="#r0"></use><use x="1127" y="719" xlink:href="#r0"></use><use x="1178" y="719" xlink:href="#r0"></use><use x="1229" y="719" xlink:href="#r0"></use><use x="1331" y="719" xlink:href="#r0"></use><use x="1433" y="719" xlink:href="#r0"></use><use x="1484" y="719" xlink:href="#r0"></use><use x="1790" y="719" xlink:href="#r0"></use><use x="158" y="770" xlink:href="#r0"></use><use x="260" y="770" xlink:href="#r0"></use><use x="311" y="770" xlink:href="#r0"></use><use x="464" y="770" xlink:href="#r0"></use><use x="566" y="770" xlink:href="#r0"></use><use x="617" y="770" xlink:href="#r0"></use><use x="668" y="770" xlink:href="#r0"></use><use x="770" y="770" xlink:href="#r0"></use><use x="872" y="770" xlink:href="#r0"></use><use x="923" y="770" xlink:href="#r0"></use><use x="1025" y="770" xlink:href="#r0"></use><use x="1178" y="770" xlink:href="#r0"></use><use x="1280" y="770" xlink:href="#r0"></use><use x="1535" y="770" xlink:href="#r0"></use><use x="1586" y="770" xlink:href="#r0"></use><use x="1637" y="770" xlink:href="#r0"></use><use x="1688" y="770" xlink:href="#r0"></use><use x="1739" y="770" xlink:href="#r0"></use><use x="158" y="821" xlink:href="#r0"></use><use x="209" y="821" xlink:href="#r0"></use><use x="362" y="821" xlink:href="#r0"></use><use x="617" y="821" xlink:href="#r0"></use><use x="923" y="821" xlink:href="#r0"></use><use x="974" y="821" xlink:href="#r0"></use><use x="1076" y="821" xlink:href="#r0"></use><use x="1127" y="821" xlink:href="#r0"></use><use x="1229" y="821" xlink:href="#r0"></use><use x="1280" y="821" xlink:href="#r0"></use><use x="1331" y="821" xlink:href="#r0"></use><use x="1382" y="821" xlink:href="#r0"></use><use x="1484" y="821" xlink:href="#r0"></use><use x="1586" y="821" xlink:href="#r0"></use><use x="1637" y="821" xlink:href="#r0"></use><use x="1688" y="821" xlink:href="#r0"></use><use x="1790" y="821" xlink:href="#r0"></use><use x="209" y="872" xlink:href="#r0"></use><use x="464" y="872" xlink:href="#r0"></use><use x="515" y="872" xlink:href="#r0"></use><use x="566" y="872" xlink:href="#r0"></use><use x="617" y="872" xlink:href="#r0"></use><use x="668" y="872" xlink:href="#r0"></use><use x="719" y="872" xlink:href="#r0"></use><use x="770" y="872" xlink:href="#r0"></use><use x="1025" y="872" xlink:href="#r0"></use><use x="1178" y="872" xlink:href="#r0"></use><use x="1280" y="872" xlink:href="#r0"></use><use x="1433" y="872" xlink:href="#r0"></use><use x="1535" y="872" xlink:href="#r0"></use><use x="1586" y="872" xlink:href="#r0"></use><use x="1739" y="872" xlink:href="#r0"></use><use x="1790" y="872" xlink:href="#r0"></use><use x="311" y="923" xlink:href="#r0"></use><use x="362" y="923" xlink:href="#r0"></use><use x="413" y="923" xlink:href="#r0"></use><use x="515" y="923" xlink:href="#r0"></use><use x="566" y="923" xlink:href="#r0"></use><use x="617" y="923" xlink:href="#r0"></use><use x="668" y="923" xlink:href="#r0"></use><use x="719" y="923" xlink:href="#r0"></use><use x="872" y="923" xlink:href="#r0"></use><use x="974" y="923" xlink:href="#r0"></use><use x="1076" y="923" xlink:href="#r0"></use><use x="1127" y="923" xlink:href="#r0"></use><use x="1178" y="923" xlink:href="#r0"></use><use x="1229" y="923" xlink:href="#r0"></use><use x="1637" y="923" xlink:href="#r0"></use><use x="1688" y="923" xlink:href="#r0"></use><use x="1790" y="923" xlink:href="#r0"></use><use x="158" y="974" xlink:href="#r0"></use><use x="311" y="974" xlink:href="#r0"></use><use x="464" y="974" xlink:href="#r0"></use><use x="719" y="974" xlink:href="#r0"></use><use x="1229" y="974" xlink:href="#r0"></use><use x="1280" y="974" xlink:href="#r0"></use><use x="1637" y="974" xlink:href="#r0"></use><use x="1688" y="974" xlink:href="#r0"></use><use x="1739" y="974" xlink:href="#r0"></use><use x="209" y="1025" xlink:href="#r0"></use><use x="362" y="1025" xlink:href="#r0"></use><use x="617" y="1025" xlink:href="#r0"></use><use x="668" y="1025" xlink:href="#r0"></use><use x="770" y="1025" xlink:href="#r0"></use><use x="821" y="1025" xlink:href="#r0"></use><use x="872" y="1025" xlink:href="#r0"></use><use x="923" y="1025" xlink:href="#r0"></use><use x="1178" y="1025" xlink:href="#r0"></use><use x="1229" y="1025" xlink:href="#r0"></use><use x="1280" y="1025" xlink:href="#r0"></use><use x="1382" y="1025" xlink:href="#r0"></use><use x="1433" y="1025" xlink:href="#r0"></use><use x="1535" y="1025" xlink:href="#r0"></use><use x="1586" y="1025" xlink:href="#r0"></use><use x="1637" y="1025" xlink:href="#r0"></use><use x="1688" y="1025" xlink:href="#r0"></use><use x="1739" y="1025" xlink:href="#r0"></use><use x="158" y="1076" xlink:href="#r0"></use><use x="209" y="1076" xlink:href="#r0"></use><use x="311" y="1076" xlink:href="#r0"></use><use x="413" y="1076" xlink:href="#r0"></use><use x="464" y="1076" xlink:href="#r0"></use><use x="515" y="1076" xlink:href="#r0"></use><use x="566" y="1076" xlink:href="#r0"></use><use x="821" y="1076" xlink:href="#r0"></use><use x="872" y="1076" xlink:href="#r0"></use><use x="923" y="1076" xlink:href="#r0"></use><use x="1025" y="1076" xlink:href="#r0"></use><use x="1178" y="1076" xlink:href="#r0"></use><use x="1280" y="1076" xlink:href="#r0"></use><use x="1331" y="1076" xlink:href="#r0"></use><use x="1382" y="1076" xlink:href="#r0"></use><use x="1433" y="1076" xlink:href="#r0"></use><use x="1535" y="1076" xlink:href="#r0"></use><use x="1586" y="1076" xlink:href="#r0"></use><use x="1637" y="1076" xlink:href="#r0"></use><use x="1790" y="1076" xlink:href="#r0"></use><use x="413" y="1127" xlink:href="#r0"></use><use x="515" y="1127" xlink:href="#r0"></use><use x="668" y="1127" xlink:href="#r0"></use><use x="770" y="1127" xlink:href="#r0"></use><use x="821" y="1127" xlink:href="#r0"></use><use x="923" y="1127" xlink:href="#r0"></use><use x="1127" y="1127" xlink:href="#r0"></use><use x="1178" y="1127" xlink:href="#r0"></use><use x="1331" y="1127" xlink:href="#r0"></use><use x="1433" y="1127" xlink:href="#r0"></use><use x="1484" y="1127" xlink:href="#r0"></use><use x="1688" y="1127" xlink:href="#r0"></use><use x="1790" y="1127" xlink:href="#r0"></use><use x="158" y="1178" xlink:href="#r0"></use><use x="209" y="1178" xlink:href="#r0"></use><use x="260" y="1178" xlink:href="#r0"></use><use x="311" y="1178" xlink:href="#r0"></use><use x="464" y="1178" xlink:href="#r0"></use><use x="515" y="1178" xlink:href="#r0"></use><use x="566" y="1178" xlink:href="#r0"></use><use x="770" y="1178" xlink:href="#r0"></use><use x="872" y="1178" xlink:href="#r0"></use><use x="923" y="1178" xlink:href="#r0"></use><use x="1025" y="1178" xlink:href="#r0"></use><use x="1076" y="1178" xlink:href="#r0"></use><use x="1178" y="1178" xlink:href="#r0"></use><use x="1229" y="1178" xlink:href="#r0"></use><use x="1382" y="1178" xlink:href="#r0"></use><use x="1637" y="1178" xlink:href="#r0"></use><use x="1739" y="1178" xlink:href="#r0"></use><use x="158" y="1229" xlink:href="#r0"></use><use x="413" y="1229" xlink:href="#r0"></use><use x="566" y="1229" xlink:href="#r0"></use><use x="617" y="1229" xlink:href="#r0"></use><use x="668" y="1229" xlink:href="#r0"></use><use x="923" y="1229" xlink:href="#r0"></use><use x="974" y="1229" xlink:href="#r0"></use><use x="1076" y="1229" xlink:href="#r0"></use><use x="1127" y="1229" xlink:href="#r0"></use><use x="1178" y="1229" xlink:href="#r0"></use><use x="1229" y="1229" xlink:href="#r0"></use><use x="1484" y="1229" xlink:href="#r0"></use><use x="1586" y="1229" xlink:href="#r0"></use><use x="1637" y="1229" xlink:href="#r0"></use><use x="1688" y="1229" xlink:href="#r0"></use><use x="1739" y="1229" xlink:href="#r0"></use><use x="158" y="1280" xlink:href="#r0"></use><use x="260" y="1280" xlink:href="#r0"></use><use x="311" y="1280" xlink:href="#r0"></use><use x="464" y="1280" xlink:href="#r0"></use><use x="515" y="1280" xlink:href="#r0"></use><use x="566" y="1280" xlink:href="#r0"></use><use x="668" y="1280" xlink:href="#r0"></use><use x="719" y="1280" xlink:href="#r0"></use><use x="770" y="1280" xlink:href="#r0"></use><use x="923" y="1280" xlink:href="#r0"></use><use x="974" y="1280" xlink:href="#r0"></use><use x="1025" y="1280" xlink:href="#r0"></use><use x="1127" y="1280" xlink:href="#r0"></use><use x="1280" y="1280" xlink:href="#r0"></use><use x="1433" y="1280" xlink:href="#r0"></use><use x="1535" y="1280" xlink:href="#r0"></use><use x="1586" y="1280" xlink:href="#r0"></use><use x="1739" y="1280" xlink:href="#r0"></use><use x="158" y="1331" xlink:href="#r0"></use><use x="260" y="1331" xlink:href="#r0"></use><use x="515" y="1331" xlink:href="#r0"></use><use x="566" y="1331" xlink:href="#r0"></use><use x="617" y="1331" xlink:href="#r0"></use><use x="719" y="1331" xlink:href="#r0"></use><use x="872" y="1331" xlink:href="#r0"></use><use x="974" y="1331" xlink:href="#r0"></use><use x="1127" y="1331" xlink:href="#r0"></use><use x="1178" y="1331" xlink:href="#r0"></use><use x="1229" y="1331" xlink:href="#r0"></use><use x="1331" y="1331" xlink:href="#r0"></use><use x="1484" y="1331" xlink:href="#r0"></use><use x="1637" y="1331" xlink:href="#r0"></use><use x="1688" y="1331" xlink:href="#r0"></use><use x="1739" y="1331" xlink:href="#r0"></use><use x="1790" y="1331" xlink:href="#r0"></use><use x="158" y="1382" xlink:href="#r0"></use><use x="260" y="1382" xlink:href="#r0"></use><use x="362" y="1382" xlink:href="#r0"></use><use x="464" y="1382" xlink:href="#r0"></use><use x="617" y="1382" xlink:href="#r0"></use><use x="719" y="1382" xlink:href="#r0"></use><use x="923" y="1382" xlink:href="#r0"></use><use x="974" y="1382" xlink:href="#r0"></use><use x="1025" y="1382" xlink:href="#r0"></use><use x="1076" y="1382" xlink:href="#r0"></use><use x="1229" y="1382" xlink:href="#r0"></use><use x="1280" y="1382" xlink:href="#r0"></use><use x="1382" y="1382" xlink:href="#r0"></use><use x="1433" y="1382" xlink:href="#r0"></use><use x="1484" y="1382" xlink:href="#r0"></use><use x="1535" y="1382" xlink:href="#r0"></use><use x="1586" y="1382" xlink:href="#r0"></use><use x="1637" y="1382" xlink:href="#r0"></use><use x="1688" y="1382" xlink:href="#r0"></use><use x="566" y="1433" xlink:href="#r0"></use><use x="770" y="1433" xlink:href="#r0"></use><use x="821" y="1433" xlink:href="#r0"></use><use x="872" y="1433" xlink:href="#r0"></use><use x="1127" y="1433" xlink:href="#r0"></use><use x="1229" y="1433" xlink:href="#r0"></use><use x="1280" y="1433" xlink:href="#r0"></use><use x="1331" y="1433" xlink:href="#r0"></use><use x="1382" y="1433" xlink:href="#r0"></use><use x="1586" y="1433" xlink:href="#r0"></use><use x="1637" y="1433" xlink:href="#r0"></use><use x="1688" y="1433" xlink:href="#r0"></use><use x="566" y="1484" xlink:href="#r0"></use><use x="668" y="1484" xlink:href="#r0"></use><use x="821" y="1484" xlink:href="#r0"></use><use x="872" y="1484" xlink:href="#r0"></use><use x="1025" y="1484" xlink:href="#r0"></use><use x="1280" y="1484" xlink:href="#r0"></use><use x="1382" y="1484" xlink:href="#r0"></use><use x="1484" y="1484" xlink:href="#r0"></use><use x="1586" y="1484" xlink:href="#r0"></use><use x="1637" y="1484" xlink:href="#r0"></use><use x="1688" y="1484" xlink:href="#r0"></use><use x="1739" y="1484" xlink:href="#r0"></use><use x="770" y="1535" xlink:href="#r0"></use><use x="821" y="1535" xlink:href="#r0"></use><use x="974" y="1535" xlink:href="#r0"></use><use x="1127" y="1535" xlink:href="#r0"></use><use x="1178" y="1535" xlink:href="#r0"></use><use x="1382" y="1535" xlink:href="#r0"></use><use x="1586" y="1535" xlink:href="#r0"></use><use x="1688" y="1535" xlink:href="#r0"></use><use x="1790" y="1535" xlink:href="#r0"></use><use x="566" y="1586" xlink:href="#r0"></use><use x="617" y="1586" xlink:href="#r0"></use><use x="770" y="1586" xlink:href="#r0"></use><use x="872" y="1586" xlink:href="#r0"></use><use x="923" y="1586" xlink:href="#r0"></use><use x="974" y="1586" xlink:href="#r0"></use><use x="1178" y="1586" xlink:href="#r0"></use><use x="1229" y="1586" xlink:href="#r0"></use><use x="1331" y="1586" xlink:href="#r0"></use><use x="1382" y="1586" xlink:href="#r0"></use><use x="1433" y="1586" xlink:href="#r0"></use><use x="1484" y="1586" xlink:href="#r0"></use><use x="1535" y="1586" xlink:href="#r0"></use><use x="1586" y="1586" xlink:href="#r0"></use><use x="1790" y="1586" xlink:href="#r0"></use><use x="566" y="1637" xlink:href="#r0"></use><use x="617" y="1637" xlink:href="#r0"></use><use x="668" y="1637" xlink:href="#r0"></use><use x="1076" y="1637" xlink:href="#r0"></use><use x="1178" y="1637" xlink:href="#r0"></use><use x="1229" y="1637" xlink:href="#r0"></use><use x="1280" y="1637" xlink:href="#r0"></use><use x="1637" y="1637" xlink:href="#r0"></use><use x="1688" y="1637" xlink:href="#r0"></use><use x="1739" y="1637" xlink:href="#r0"></use><use x="566" y="1688" xlink:href="#r0"></use><use x="617" y="1688" xlink:href="#r0"></use><use x="719" y="1688" xlink:href="#r0"></use><use x="770" y="1688" xlink:href="#r0"></use><use x="923" y="1688" xlink:href="#r0"></use><use x="1025" y="1688" xlink:href="#r0"></use><use x="1280" y="1688" xlink:href="#r0"></use><use x="1331" y="1688" xlink:href="#r0"></use><use x="1382" y="1688" xlink:href="#r0"></use><use x="1484" y="1688" xlink:href="#r0"></use><use x="1637" y="1688" xlink:href="#r0"></use><use x="566" y="1739" xlink:href="#r0"></use><use x="668" y="1739" xlink:href="#r0"></use><use x="719" y="1739" xlink:href="#r0"></use><use x="872" y="1739" xlink:href="#r0"></use><use x="923" y="1739" xlink:href="#r0"></use><use x="974" y="1739" xlink:href="#r0"></use><use x="1076" y="1739" xlink:href="#r0"></use><use x="1178" y="1739" xlink:href="#r0"></use><use x="1331" y="1739" xlink:href="#r0"></use><use x="1382" y="1739" xlink:href="#r0"></use><use x="1433" y="1739" xlink:href="#r0"></use><use x="1535" y="1739" xlink:href="#r0"></use><use x="1586" y="1739" xlink:href="#r0"></use><use x="1688" y="1739" xlink:href="#r0"></use><use x="1739" y="1739" xlink:href="#r0"></use><use x="1790" y="1739" xlink:href="#r0"></use><use x="566" y="1790" xlink:href="#r0"></use><use x="617" y="1790" xlink:href="#r0"></use><use x="668" y="1790" xlink:href="#r0"></use><use x="719" y="1790" xlink:href="#r0"></use><use x="923" y="1790" xlink:href="#r0"></use><use x="974" y="1790" xlink:href="#r0"></use><use x="1178" y="1790" xlink:href="#r0"></use><use x="1229" y="1790" xlink:href="#r0"></use><use x="1280" y="1790" xlink:href="#r0"></use><use x="1331" y="1790" xlink:href="#r0"></use><use x="1382" y="1790" xlink:href="#r0"></use><use x="1484" y="1790" xlink:href="#r0"></use><use x="1637" y="1790" xlink:href="#r0"></use><use x="1739" y="1790" xlink:href="#r0"></use><svg version="1.1" id="Ebene_1" x="158" y="158" width="357" height="357" viewBox="0 0 699.988 699.986" enable-background="new 0 0 699.988 699.986" xml:space="preserve" shape-rendering="auto">
<path fill="#000000" d="M600.99,0h-100h-99.997h-0.001h-99.997h-99.998h-99.998H1v99.998v99.998v99.998v99.999v99.997v99.998v99.998  h99.999h99.998h99.998h99.997h0.001h99.997h100h99.998v-99.998V499.99v-99.997v-99.999v-99.998V99.998V0H600.99z M600.99,199.996  v99.998v99.999v99.997v99.998h-100h-99.997h-0.001h-99.997h-99.998h-99.998V499.99v-99.997v-99.999v-99.998V99.998h99.998h99.998  h99.997h0.001h99.997h100V199.996z"></path>
</svg>
<svg version="1.0" id="Ebene_1" x="158" y="158" width="357" height="357" viewBox="0 0 699.988 699.988" enable-background="new 0 0 699.988 699.988" xml:space="preserve" shape-rendering="auto">
<polygon fill="#000000" points="399.994,199.997 399.992,199.997 299.996,199.997 199.998,199.997 199.998,299.994 199.998,399.994   199.998,499.991 299.996,499.991 399.992,499.991 399.994,499.991 499.99,499.991 499.99,399.994 499.99,299.994 499.99,199.997 "></polygon>
</svg>
<svg version="1.1" id="Ebene_1" x="1484" y="158" width="357" height="357" viewBox="0 0 699.988 699.986" enable-background="new 0 0 699.988 699.986" xml:space="preserve" shape-rendering="auto">
<path fill="#000000" d="M600.99,0h-100h-99.997h-0.001h-99.997h-99.998h-99.998H1v99.998v99.998v99.998v99.999v99.997v99.998v99.998  h99.999h99.998h99.998h99.997h0.001h99.997h100h99.998v-99.998V499.99v-99.997v-99.999v-99.998V99.998V0H600.99z M600.99,199.996  v99.998v99.999v99.997v99.998h-100h-99.997h-0.001h-99.997h-99.998h-99.998V499.99v-99.997v-99.999v-99.998V99.998h99.998h99.998  h99.997h0.001h99.997h100V199.996z"></path>
</svg>
<svg version="1.0" id="Ebene_1" x="1484" y="158" width="357" height="357" viewBox="0 0 699.988 699.988" enable-background="new 0 0 699.988 699.988" xml:space="preserve" shape-rendering="auto">
<polygon fill="#000000" points="399.994,199.997 399.992,199.997 299.996,199.997 199.998,199.997 199.998,299.994 199.998,399.994   199.998,499.991 299.996,499.991 399.992,499.991 399.994,499.991 499.99,499.991 499.99,399.994 499.99,299.994 499.99,199.997 "></polygon>
</svg>
<svg version="1.1" id="Ebene_1" x="158" y="1484" width="357" height="357" viewBox="0 0 699.988 699.986" enable-background="new 0 0 699.988 699.986" xml:space="preserve" shape-rendering="auto">
<path fill="#000000" d="M600.99,0h-100h-99.997h-0.001h-99.997h-99.998h-99.998H1v99.998v99.998v99.998v99.999v99.997v99.998v99.998  h99.999h99.998h99.998h99.997h0.001h99.997h100h99.998v-99.998V499.99v-99.997v-99.999v-99.998V99.998V0H600.99z M600.99,199.996  v99.998v99.999v99.997v99.998h-100h-99.997h-0.001h-99.997h-99.998h-99.998V499.99v-99.997v-99.999v-99.998V99.998h99.998h99.998  h99.997h0.001h99.997h100V199.996z"></path>
</svg>
<svg version="1.0" id="Ebene_1" x="158" y="1484" width="357" height="357" viewBox="0 0 699.988 699.988" enable-background="new 0 0 699.988 699.988" xml:space="preserve" shape-rendering="auto">
<polygon fill="#000000" points="399.994,199.997 399.992,199.997 299.996,199.997 199.998,199.997 199.998,299.994 199.998,399.994   199.998,499.991 299.996,499.991 399.992,499.991 399.994,499.991 499.99,499.991 499.99,399.994 499.99,299.994 499.99,199.997 "></polygon>
</svg>
</svg>

</svg>